<mxfile host="app.diagrams.net" modified="2022-12-17T06:30:39.894Z" agent="5.0 (Windows NT 10.0; Win64; x64) AppleWebKit/537.36 (KHTML, like Gecko) Chrome/108.0.0.0 Safari/537.36 Edg/108.0.1462.46" version="20.7.4" etag="S3B77rzqTtOQP55Wedoe" type="github">
  <diagram id="ZJqsGOxn4gPMXBzagIJ0" name="第 1 页">
    <mxGraphModel dx="1185" dy="648" grid="1" gridSize="10" guides="1" tooltips="1" connect="1" arrows="1" fold="1" page="1" pageScale="1" pageWidth="827" pageHeight="1169" math="0" shadow="0">
      <root>
        <mxCell id="0" />
        <mxCell id="1" parent="0" />
        <mxCell id="vveuAYyUH36HVa8ue1DU-24" value="" style="rounded=1;whiteSpace=wrap;html=1;shadow=1;fontFamily=Lucida Console;fontSize=10;fontColor=#FFFFFF;fillColor=#EFF1F3;strokeColor=none;" vertex="1" parent="1">
          <mxGeometry x="35" y="175" width="585" height="405" as="geometry" />
        </mxCell>
        <mxCell id="vveuAYyUH36HVa8ue1DU-1" value="Color&lt;br style=&quot;font-size: 10px;&quot;&gt;#77AAC2" style="rounded=1;whiteSpace=wrap;html=1;shadow=1;strokeColor=none;fillColor=#77aac2;fontFamily=Lucida Console;fontColor=#FFFFFF;fontSize=10;" vertex="1" parent="1">
          <mxGeometry x="645" y="174" width="120" height="60" as="geometry" />
        </mxCell>
        <mxCell id="vveuAYyUH36HVa8ue1DU-17" value="Title Font&lt;br style=&quot;font-size: 18px;&quot;&gt;Comic Sans Ms" style="text;html=1;align=center;verticalAlign=middle;resizable=0;points=[];autosize=1;strokeColor=none;fillColor=none;fontFamily=Comic Sans MS;fontSize=18;fontColor=#666666;" vertex="1" parent="1">
          <mxGeometry x="230" y="190" width="150" height="60" as="geometry" />
        </mxCell>
        <mxCell id="vveuAYyUH36HVa8ue1DU-20" value="Color&lt;br style=&quot;font-size: 10px;&quot;&gt;#77AAC2" style="rounded=1;whiteSpace=wrap;html=1;shadow=1;strokeColor=none;fillColor=#FCD765;fontFamily=Lucida Console;fontColor=#FFFFFF;fontSize=10;" vertex="1" parent="1">
          <mxGeometry x="648" y="266" width="120" height="60" as="geometry" />
        </mxCell>
        <mxCell id="vveuAYyUH36HVa8ue1DU-21" value="Color&lt;br style=&quot;font-size: 10px;&quot;&gt;#79D9CE" style="rounded=1;whiteSpace=wrap;html=1;shadow=1;strokeColor=none;fillColor=#79D9CE;fontFamily=Lucida Console;fontColor=#FFFFFF;fontSize=10;" vertex="1" parent="1">
          <mxGeometry x="648" y="350" width="120" height="60" as="geometry" />
        </mxCell>
        <mxCell id="vveuAYyUH36HVa8ue1DU-22" value="Color&lt;br style=&quot;font-size: 10px;&quot;&gt;#F19A97" style="rounded=1;whiteSpace=wrap;html=1;shadow=1;strokeColor=none;fillColor=#F19A97;fontFamily=Lucida Console;fontColor=#FFFFFF;fontSize=10;" vertex="1" parent="1">
          <mxGeometry x="648" y="434" width="120" height="60" as="geometry" />
        </mxCell>
        <mxCell id="vveuAYyUH36HVa8ue1DU-23" value="Background&lt;br style=&quot;font-size: 10px;&quot;&gt;#EFF1F3" style="rounded=1;whiteSpace=wrap;html=1;shadow=1;strokeColor=none;fillColor=#EFF1F3;fontFamily=Lucida Console;fontColor=#FFFFFF;fontSize=10;" vertex="1" parent="1">
          <mxGeometry x="648" y="520" width="120" height="60" as="geometry" />
        </mxCell>
        <mxCell id="vveuAYyUH36HVa8ue1DU-25" value="Color&lt;br style=&quot;font-size: 10px;&quot;&gt;#79D9CE" style="rounded=1;whiteSpace=wrap;html=1;shadow=1;strokeColor=none;fillColor=#79D9CE;fontFamily=Lucida Console;fontColor=#FFFFFF;fontSize=10;" vertex="1" parent="1">
          <mxGeometry x="60" y="322" width="120" height="40" as="geometry" />
        </mxCell>
        <mxCell id="vveuAYyUH36HVa8ue1DU-26" value="Color&lt;br style=&quot;font-size: 10px;&quot;&gt;#F19A97" style="rounded=1;whiteSpace=wrap;html=1;shadow=1;strokeColor=none;fillColor=#F19A97;fontFamily=Lucida Console;fontColor=#FFFFFF;fontSize=10;" vertex="1" parent="1">
          <mxGeometry x="414" y="250" width="120" height="36" as="geometry" />
        </mxCell>
        <mxCell id="vveuAYyUH36HVa8ue1DU-29" value="" style="edgeStyle=segmentEdgeStyle;endArrow=classic;html=1;rounded=1;endSize=8;startSize=8;sourcePerimeterSpacing=0;targetPerimeterSpacing=0;dashed=1;strokeColor=#666666;strokeWidth=2;fontFamily=Lucida Console;fontSize=10;fontColor=#4D4D4D;entryX=0;entryY=0.25;entryDx=0;entryDy=0;shadow=0;jumpStyle=none;jumpSize=20;exitX=1;exitY=0.25;exitDx=0;exitDy=0;" edge="1" parent="1" source="vveuAYyUH36HVa8ue1DU-25" target="vveuAYyUH36HVa8ue1DU-26">
          <mxGeometry width="100" relative="1" as="geometry">
            <mxPoint x="190" y="350" as="sourcePoint" />
            <mxPoint x="380" y="287" as="targetPoint" />
            <Array as="points">
              <mxPoint x="220" y="332" />
              <mxPoint x="220" y="260" />
              <mxPoint x="390" y="260" />
            </Array>
          </mxGeometry>
        </mxCell>
        <mxCell id="vveuAYyUH36HVa8ue1DU-30" value="" style="edgeStyle=segmentEdgeStyle;endArrow=classic;html=1;rounded=1;endSize=8;startSize=8;sourcePerimeterSpacing=0;targetPerimeterSpacing=0;dashed=1;strokeColor=#666666;strokeWidth=2;fontFamily=Lucida Console;fontSize=10;fontColor=#4D4D4D;shadow=0;jumpStyle=none;jumpSize=20;entryX=0;entryY=0.5;entryDx=0;entryDy=0;exitX=1.001;exitY=0.532;exitDx=0;exitDy=0;exitPerimeter=0;" edge="1" parent="1" source="vveuAYyUH36HVa8ue1DU-25" target="vveuAYyUH36HVa8ue1DU-31">
          <mxGeometry width="100" relative="1" as="geometry">
            <mxPoint x="180" y="342" as="sourcePoint" />
            <mxPoint x="410" y="340" as="targetPoint" />
            <Array as="points" />
          </mxGeometry>
        </mxCell>
        <mxCell id="vveuAYyUH36HVa8ue1DU-31" value="Color&lt;br style=&quot;font-size: 10px;&quot;&gt;#F19A97" style="rounded=1;whiteSpace=wrap;html=1;shadow=1;strokeColor=none;fillColor=#F19A97;fontFamily=Lucida Console;fontColor=#FFFFFF;fontSize=10;" vertex="1" parent="1">
          <mxGeometry x="414" y="326" width="120" height="36" as="geometry" />
        </mxCell>
        <mxCell id="vveuAYyUH36HVa8ue1DU-33" value="Color&lt;br style=&quot;font-size: 10px;&quot;&gt;#77AAC2" style="rounded=1;whiteSpace=wrap;html=1;shadow=1;strokeColor=none;fillColor=#FCD765;fontFamily=Lucida Console;fontColor=#FFFFFF;fontSize=10;" vertex="1" parent="1">
          <mxGeometry x="414" y="380" width="120" height="40" as="geometry" />
        </mxCell>
        <mxCell id="vveuAYyUH36HVa8ue1DU-34" value="" style="edgeStyle=segmentEdgeStyle;endArrow=classic;html=1;rounded=1;endSize=8;startSize=8;sourcePerimeterSpacing=0;targetPerimeterSpacing=0;dashed=1;strokeColor=#666666;strokeWidth=2;fontFamily=Lucida Console;fontSize=10;fontColor=#4D4D4D;entryX=0;entryY=0.5;entryDx=0;entryDy=0;shadow=0;jumpStyle=none;jumpSize=120;exitX=1.003;exitY=0.79;exitDx=0;exitDy=0;exitPerimeter=0;" edge="1" parent="1" source="vveuAYyUH36HVa8ue1DU-25" target="vveuAYyUH36HVa8ue1DU-33">
          <mxGeometry width="100" relative="1" as="geometry">
            <mxPoint x="190" y="342" as="sourcePoint" />
            <mxPoint x="424" y="279" as="targetPoint" />
            <Array as="points">
              <mxPoint x="220" y="354" />
              <mxPoint x="220" y="400" />
            </Array>
          </mxGeometry>
        </mxCell>
        <mxCell id="vveuAYyUH36HVa8ue1DU-35" value="category" style="text;html=1;align=center;verticalAlign=middle;resizable=0;points=[];autosize=1;strokeColor=none;fillColor=none;fontSize=8;fontFamily=Lucida Console;fontColor=#666666;" vertex="1" parent="1">
          <mxGeometry x="280" y="310" width="80" height="30" as="geometry" />
        </mxCell>
        <mxCell id="vveuAYyUH36HVa8ue1DU-37" value="Color&lt;br style=&quot;font-size: 10px;&quot;&gt;#77AAC2" style="rounded=1;whiteSpace=wrap;html=1;shadow=1;strokeColor=none;fillColor=#77aac2;fontFamily=Lucida Console;fontColor=#FFFFFF;fontSize=10;" vertex="1" parent="1">
          <mxGeometry x="250" y="410" width="120" height="40" as="geometry" />
        </mxCell>
        <mxCell id="vveuAYyUH36HVa8ue1DU-38" value="" style="edgeStyle=segmentEdgeStyle;endArrow=classic;html=1;endSize=8;startSize=8;sourcePerimeterSpacing=0;targetPerimeterSpacing=0;dashed=1;strokeColor=#666666;strokeWidth=2;fontFamily=Lucida Console;fontSize=10;fontColor=#4D4D4D;entryX=0;entryY=0.5;entryDx=0;entryDy=0;shadow=0;jumpStyle=none;jumpSize=120;exitX=0.468;exitY=1.064;exitDx=0;exitDy=0;exitPerimeter=0;curved=1;" edge="1" parent="1" source="vveuAYyUH36HVa8ue1DU-25" target="vveuAYyUH36HVa8ue1DU-37">
          <mxGeometry width="100" relative="1" as="geometry">
            <mxPoint x="190.36000000000013" y="363.6" as="sourcePoint" />
            <mxPoint x="424" y="410" as="targetPoint" />
            <Array as="points">
              <mxPoint x="150" y="365" />
              <mxPoint x="150" y="430" />
              <mxPoint x="220" y="430" />
            </Array>
          </mxGeometry>
        </mxCell>
      </root>
    </mxGraphModel>
  </diagram>
</mxfile>
